<?xml version="1.0" encoding="UTF-8" standalone="no"?>
<!-- Created with Inkscape (http://www.inkscape.org/) -->

<svg
   version="1.1"
   id="svg1"
   width="4000"
   height="7710.6665"
   viewBox="0 0 4000 7710.6665"
   xmlns="http://www.w3.org/2000/svg"
   xmlns:svg="http://www.w3.org/2000/svg">
  <defs
     id="defs1">
    <linearGradient
       id="swatch1">
      <stop
         style="stop-color:#000000;stop-opacity:1;"
         offset="0"
         id="stop1" />
    </linearGradient>
  </defs>
  <g
     id="g1">
    <path
       id="path2"
       style="fill:#92c4e4;stroke:#ffffff;stroke-width:0"
       d="M 912.8999,4016.7283 580.2417,3757.451 c -4.59434,4.1373 -7.77562,6.8645 -12.85547,11.4746 -61.19161,55.533 -72.5419,63.8055 -94.02734,68.5371 -12.45733,2.7433 -22.8292,8.5661 -28.01758,15.7285 -3.24902,4.4851 -3.98242,6.8195 -3.98242,12.6953 0,18.5701 13.17548,26.4504 44,26.3164 32.66855,-0.142 59.49699,-10.6961 87.30468,-34.3457 35.52388,-30.212 57.21777,-36.2068 72.8086,-20.1211 4.25732,4.3925 4.51953,5.1937 4.30078,13.0664 -0.50409,18.142 -13.25615,59.3945 -45.58985,147.4844 -25.64637,69.8709 -26.11921,71.0616 -47.03515,118.2207 -10.1365,22.8547 -20.27597,47.0615 -22.53125,53.793 -7.69144,22.9575 -6.54361,37.1754 3.38086,41.8848 18.38596,8.7248 38.78992,-9.8634 64.13867,-58.4278 11.40205,-21.8446 20.06676,-41.1936 39.4668,-88.1367 20.18527,-48.8431 27.32727,-63.5596 35.11132,-72.3496 11.21499,-12.6642 15.3125,-12.3028 15.3125,1.3516 0,16.218 -8.25809,46.9359 -31.98828,118.998 -50.96008,154.7519 -53.5676,171.5365 -27.67382,178.0566 17.05824,4.2953 30.22025,-9.4543 43.45312,-45.3906 2.2953,-6.2334 13.14831,-40.132 24.11914,-75.332 29.91402,-95.9794 41.46594,-128.9459 51.86133,-148 10.37118,-19.0097 15.17654,-10.1287 10.18555,18.8242 -1.12269,6.5127 -7.07021,32.5418 -13.21875,57.8418 -6.14854,25.3 -12.18204,50.7993 -13.40625,56.666 -1.22421,5.8666 -5.11559,21.468 -8.64844,34.668 -9.89825,36.9834 -11.262,44.0556 -11.3086,58.666 -0.0351,10.9901 0.42699,14.1274 2.625,17.8496 5.73005,9.7036 19.24078,12.1695 29.30664,5.3496 10.1468,-6.8746 20.33639,-25.5569 29.76758,-54.584 6.82781,-21.0145 10.96286,-37.5272 23.53125,-93.9492 5.55408,-24.9334 12.24044,-53.1327 14.85743,-62.666 5.75426,-20.962 15.11904,-43.7942 20.53515,-50.0645 3.91037,-4.5271 4.00973,-4.5583 6.11914,-1.9355 1.83176,2.2776 2.04544,5.5842 1.45508,22.666 -0.70856,20.5015 -3.21888,39.93 -10.09961,78.207 -11.58724,64.459 -11.59553,100.133 -0.0273,111.7012 3.44136,3.4414 5.12066,4.0918 10.55468,4.0918 5.46119,0 7.106,-0.645 10.63282,-4.1719 13.76667,-13.7666 26.82108,-57.4303 40.02929,-133.8847 2.27505,-13.1689 5.88227,-30.5427 8.01563,-38.6094 1.9633,-7.4237 5.72874,-19.3373 10.19531,-32.8926 z" />
    <path
       id="path39"
       style="fill:#92c4e4;stroke:#ffffff;stroke-width:0"
       d="m 753.39599,3624.6717 c -10.41463,15.4169 -30.73532,31.366 -57.81445,45.1035 -33.27921,16.8827 -55.60841,33.8866 -115.33984,87.6758 l 332.6582,259.2773 c 7.26023,-22.0335 16.92254,-49.6984 27.80274,-79.1074 16.79952,-45.4087 22.04228,-62.4214 27.3164,-88.666 5.4608,-27.1735 7.84009,-50.29 10.00977,-97.2442 0.74881,-16.2051 1.41405,-26.4905 2.26367,-35.2011 z" />
    <path
       id="path38"
       style="fill:#92c4e4;stroke:#ffffff;stroke-width:0"
       d="m 793.49756,3453.1834 c -7.22657,53.6187 -12.32851,87.1983 -17.43164,108.2695 -4.81295,19.8731 -14.76678,49.4669 -19.66407,58.4649 -0.85698,1.5745 -1.93241,3.1649 -3.00586,4.7539 l 226.89649,91.8379 c 1.2423,-12.7366 2.94594,-21.3902 6.43555,-34.3496 0.8478,-3.1485 19.42587,-48.9582 41.28517,-101.7989 2.3826,-5.7594 2.9214,-7.1396 5.2988,-12.8906 z" />
    <path
       id="path37"
       style="fill:#92c4e4;stroke:#ffffff;stroke-width:0"
       d="m 893.92139,2877.7479 c -39.69771,160.775 -65.01634,299.9388 -89.18164,490.539 -5.30645,41.8538 -7.9261,60.2922 -11.24219,84.8965 l 239.81444,114.2871 c 41.9706,-101.5261 84.1523,-204.0915 93.5293,-227.5723 3.5997,-9.0139 11.2748,-26.4132 17.0566,-38.666 52.2748,-110.779 62.5278,-133.5319 82.4337,-182.9453 6.8248,-16.942 16.5952,-43.4148 22.0547,-59.6406 z" />
    <path
       id="path36"
       style="fill:#92c4e4;stroke:#ffffff;stroke-width:0"
       d="m 949.8999,2689.4412 c -20.09049,51.7072 -31.27225,88.858 -53.69141,178.8457 -0.7983,3.2043 -1.50027,6.2743 -2.2871,9.461 l 354.46491,180.8984 c 0.094,-0.279 0.2877,-0.7527 0.3789,-1.0254 17.445,-52.15 22.6402,-76.9075 24.6211,-117.334 1.2146,-24.7879 3.3479,-46.9517 6.1406,-68.7441 z" />
    <path
       id="path35"
       style="fill:#92c4e4;stroke:#ffffff;stroke-width:0"
       d="m 1070.4565,2054.0076 c -1.2539,76.4418 -2.5956,115.5288 -5.1875,134.2793 -0.7096,5.1334 -3.6354,19.5334 -6.5039,32 -8.9767,39.014 -29.0739,140.5593 -56.7363,286.668 -7.77504,41.0666 -15.95135,80.9063 -18.16796,88.5332 -5.86286,20.173 -14.88872,45.2157 -31.52735,87.4668 -0.9042,2.2961 -1.56517,4.2513 -2.43359,6.4863 l 329.627,182.1016 c 6.6182,-51.6443 18.5709,-101.2681 42.5215,-179.2559 11.8522,-38.5931 15.5751,-51.8331 31.3105,-111.332 33.7455,-127.5992 48.6713,-172.6464 61.1309,-184.5 2.2852,-2.174 4.3822,-2.8516 6.3886,-2.8418 l -78.9492,-311.3262 a 366.1153,366.1153 0 0 1 -101.0429,14.8223 366.1153,366.1153 0 0 1 -170.4298,-43.1016 z" />
    <path
       id="path14"
       style="fill:#92c4e4;stroke:#ffffff;stroke-width:0"
       d="m 1780.8374,7228.5799 h -372.1816 c -1.208,3.8364 -2.4032,7.2953 -3.7188,11.707 -11.7282,39.3295 -16.2187,65.0767 -15.3046,87.7461 0.5184,12.856 1.0952,15.8863 4.1738,21.8965 1.9654,3.8368 5.0046,7.9143 6.7539,9.0605 2.2746,1.4904 3.4469,3.8598 4.1152,8.3164 2.7781,18.5256 17.5767,31.7302 37.3379,33.3165 l 8.1504,0.6542 4.4102,8.504 c 5.5942,10.7897 16.2175,20.6633 26.457,24.5898 5.9895,2.2968 10.4266,2.9312 20.3281,2.9082 11.0771,-0.026 13.17,0.3455 16.668,2.9629 9.1593,6.8535 15.6527,9.1722 27.332,9.7559 12.5493,0.6271 22.5713,-1.9778 32.2559,-8.3868 l 5.0957,-3.373 9.6582,7.2148 c 14.6055,10.9106 29.934,17.8168 44.3242,19.9727 7.0479,1.0558 22.4423,-0.6127 29.9473,-3.2461 14.4666,-5.0761 25.6608,-14.0822 43.7773,-35.2246 28.6967,-33.4897 47.9722,-70.1942 58.209,-110.8438 3.5908,-14.2591 7.1478,-37.7399 9.3672,-61.8242 0.8421,-9.1387 1.8445,-17.4136 2.8437,-25.707 z" />
    <path
       id="path33"
       style="fill:#92c4e4;stroke:#ffffff;stroke-width:0"
       d="m 1556.2515,6884.9197 c -2.4113,10.283 -5.2559,20.2772 -8.9102,30.0352 -11.9446,31.8955 -33.9676,81.1042 -79.9629,178.666 -41.7467,88.5499 -50.0314,107.357 -58.7226,134.959 h 372.1816 c 4.3797,-36.3507 10.2137,-65.1712 17.918,-86.959 5.7512,-16.2643 10.461,-25.2637 22.3105,-42.6172 11.9018,-17.43 19.1798,-32.0888 23.1934,-46.7168 2.572,-9.3734 2.9336,-14.0609 2.9766,-38.666 0.043,-24.584 -0.4032,-30.6785 -3.6504,-49.9473 -5.6762,-33.6825 -7.2882,-48.4182 -8.6446,-78.7539 z" />
    <path
       id="path31"
       style="fill:#92c4e4;stroke:#ffffff;stroke-width:0"
       d="m 1554.1382,6715.0428 c 11.5911,77.8059 12.0962,127.3057 2.1133,169.8769 h 278.6894 c -0.1041,-2.3295 -0.2255,-4.0953 -0.3281,-6.6328 -0.7562,-18.7 -2.8573,-48.6994 -4.6679,-66.666 -3.05,-30.2646 -4.316,-62.8863 -4.7325,-96.5781 z" />
    <path
       id="path29"
       style="fill:#92c4e4;stroke:#ffffff;stroke-width:0"
       d="m 1484.1421,5381.4061 c 1.0377,60.5532 0.7428,145.234 -1.1797,180.8808 -3.1398,58.2199 -6.9841,115.0311 -12.498,184.668 -5.4573,68.9205 -5.4938,69.8289 -6.0899,152.666 -1.3157,182.8532 7.144,340.5318 25.0723,467.334 6.0186,42.5684 10.6031,67.5246 28.5391,155.332 9.0625,44.3667 19.2053,95.068 22.539,112.668 5.7054,30.121 10.0364,56.0772 13.6133,80.0879 h 271.0742 c -0.7331,-59.3101 2.1448,-123.1634 9.5547,-192.0879 7.5876,-70.5766 14.0568,-102.9077 37.2207,-186 36.6001,-131.2892 48.5099,-214.6739 48.4649,-339.334 -0.026,-73.3929 -2.0044,-111.4108 -13.7618,-264.666 -11.5431,-150.4628 -14.2146,-204.5861 -12.8398,-260 0.9599,-38.688 3.1112,-64.3475 7.752,-91.5488 z" />
    <path
       id="path27"
       style="fill:#92c4e4;stroke:#ffffff;stroke-width:0"
       d="m 1471.8355,4799.5271 c 14.8749,77.5389 15.1527,108.3108 10.3359,192.7598 -7.9347,139.1145 -7.8891,217.9045 0.1895,333.334 0.8145,11.6383 1.3767,32.1791 1.7812,55.7852 h 417.461 c 2.6066,-15.2784 5.7847,-30.9305 10.5,-49.9258 17.5947,-70.8792 26.3268,-120.2547 33.2207,-187.8594 5.3234,-52.2032 12.0771,-169.4203 20.4765,-344.0938 z" />
    <path
       id="path25"
       style="fill:#92c4e4;stroke:#ffffff;stroke-width:0"
       d="m 1393.5249,4075.1072 c 4.8372,103.543 10.2641,212.7826 14.5547,284.5137 10.6524,178.0893 14.1996,205.2155 46.6328,356.666 7.3393,34.2715 12.7012,60.1905 17.1231,83.2402 h 493.9648 c 1.0297,-21.4136 1.7893,-33.0821 2.8789,-56.5722 9.1955,-198.2271 12.9653,-260.5861 19.3516,-320 6.6074,-61.4698 10.7256,-128.6538 13.3203,-217.334 1.5129,-51.708 3.1795,-78.9634 5.9922,-98 2.3354,-15.8059 5.9349,-26.6188 9.8516,-32.5137 z" />
    <path
       id="path20"
       style="fill:#92c4e4;stroke:#ffffff;stroke-width:0"
       d="m 2634.9741,7228.6268 h -372.3046 c 1.127,9.4849 2.2383,19.1243 3.2949,30.3281 4.4942,47.6534 12.7948,79.429 29.4316,112.666 17.1466,34.2553 51.6029,75.4402 72.2852,86.4004 25.9483,13.7507 57.4659,8.6449 84.9824,-13.7676 l 7.1231,-5.8027 10.7421,5.4883 c 9.4769,4.8419 12.0617,5.5564 21.9629,6.0761 13.2918,0.6977 21.9579,-1.6613 30.7559,-8.3769 5.6544,-4.3162 5.9783,-4.3886 19.1582,-4.2813 12.887,0.1049 13.795,-0.084 23.4414,-4.8515 11.2263,-5.5483 17.5722,-11.9307 23.5566,-23.6953 l 3.8047,-7.4786 8.4903,-0.6816 c 9.6057,-0.771 18.2095,-4.1519 24.8476,-9.7617 5.4085,-4.5707 12.1465,-18.1417 12.1465,-24.4727 9e-4,-3.6301 1.048,-5.4359 5.2324,-9.0176 7.9063,-6.7675 10.1299,-14.5946 9.9766,-35.1113 -0.1805,-24.1513 -5.3893,-50.0875 -18.6133,-92.6797 -0.1072,-0.3452 -0.2084,-0.6402 -0.3145,-0.9804 z" />
    <path
       id="path34"
       style="fill:#92c4e4;stroke:#ffffff;stroke-width:0"
       d="m 2208.8491,6881.0623 c -1.4479,31.1443 -3.0685,47.1917 -7.5722,74.6992 -8.319,50.8101 -8.233,77.1892 0.3379,103.8594 3.9307,12.231 8.6392,21.159 20.791,39.418 12.4224,18.6653 17.1855,27.7635 22.6641,43.2968 7.7788,22.0554 13.0627,48.1097 17.5996,86.2911 h 372.3046 c -8.7082,-27.9307 -14.0886,-40.0348 -74.2324,-167.6719 -40.4702,-85.8857 -63.8931,-140.5445 -71.459,-166.752 -1.3776,-4.772 -2.3737,-8.9344 -3.3574,-13.1406 z" />
    <path
       id="path32"
       style="fill:#92c4e4;stroke:#ffffff;stroke-width:0"
       d="m 2217.8999,6713.0897 c -0.09,32.468 -0.5627,62.5577 -1.5586,71.8652 -0.9024,8.4333 -2.5396,23.7333 -3.6386,34 -1.099,10.2667 -2.6,33.3654 -3.334,51.332 -0.1691,4.1379 -0.3497,7.1229 -0.5196,10.7754 h 277.0762 c -4.1312,-17.6647 -5.2203,-32.9744 -5.1308,-66.1074 0.079,-29.4175 0.7045,-42.3407 2.9531,-60.9492 1.607,-13.2984 3.4113,-26.5549 5.6074,-40.916 z" />
    <path
       id="path30"
       style="fill:#92c4e4;stroke:#ffffff;stroke-width:0"
       d="m 2142.0503,5381.4061 c 0.8404,5.1518 1.8347,10.1554 2.584,16.2148 3.6656,29.6407 4.7266,51.6517 4.7266,98.0703 0,64.2228 -1.7886,97.7442 -12.6953,237.9297 -11.8008,151.6763 -14.7066,213.223 -13.5313,286.666 0.9916,61.9591 3.399,94.2487 11.0332,148 7.1012,49.9989 16.3688,91.8824 37.1777,168 17.1301,62.661 19.497,72.1234 24.5039,98 9.0299,46.6626 15.2003,100.2086 20.4356,177.334 1.2281,18.0926 1.7251,61.7455 1.6152,101.4688 h 271.4551 c 6.482,-42.3886 16.4995,-94.8253 35.8984,-189.7325 22.5504,-110.3255 29.3622,-151.6794 37.4043,-227.0703 9.269,-86.8917 13.8539,-170.7019 16.1172,-294.666 1.958,-107.2496 0.3797,-175.2733 -5.9375,-256 -13.0594,-166.8858 -16.8987,-267.8105 -13.8144,-364.2148 z" />
    <path
       id="path28"
       style="fill:#92c4e4;stroke:#ffffff;stroke-width:0"
       d="m 2077.6675,4799.574 c 8.1368,168.7667 15.4259,295.4769 20.4121,344.0469 6.7276,65.5318 15.9443,118.2231 31.9512,182.666 7.1181,28.6572 9.8784,41.9934 12.0195,55.1192 h 416.9727 c 0.7218,-22.5614 1.4648,-44.9408 2.9668,-67.7852 3.5083,-53.3594 4.7053,-92.6226 4.6953,-154.666 -0.01,-63.726 -0.7324,-85.7827 -5.502,-167.334 -4.7303,-80.8784 -4.7003,-112.1856 10.4727,-192.0469 z" />
    <path
       id="path26"
       style="fill:#92c4e4;stroke:#ffffff;stroke-width:0"
       d="m 2028.7066,4075.1072 c 0.7168,1.0737 1.4979,1.098 2.1777,2.6348 6.0484,13.6734 8.5784,39.0942 10.4727,105.2129 3.0721,107.2325 7.1471,175.4563 14.6523,245.332 5.7949,53.9527 9.8698,122.2169 18.668,312.668 1.0767,23.3075 1.9455,36.9514 2.9902,58.6191 h 493.9883 c 5.5155,-29.0304 12.7624,-63.7355 22.8906,-110.6191 15.1669,-70.2079 24.0789,-121.4751 28.7403,-165.334 6.8229,-64.1979 16.0602,-233.8266 26.0957,-448.5137 z" />
    <path
       id="path19"
       style="fill:#92c4e4;stroke:#ffffff;stroke-width:0"
       d="m 1612.8609,3360.451 h -200.8106 c -0.8934,5.1267 -1.1489,7.3637 -2.0879,12.7109 -5.4929,31.2815 -11.1569,67.2815 -12.5859,80 -9.0541,80.5833 -17.2365,256.598 -15.5488,334.459 1.0599,48.9039 5.9591,164.6579 11.6972,287.4863 h 219.336 z" />
    <path
       id="path21"
       style="fill:#92c4e4;stroke:#ffffff;stroke-width:0"
       d="m 2425.148,3360.451 h -812.2871 v 714.6562 h 404.334 c 3.7918,-5.7071 7.7977,-5.563 11.5117,0 h 396.4414 z" />
    <path
       id="path22"
       style="fill:#92c4e4;stroke:#ffffff;stroke-width:0"
       d="m 2425.148,3360.451 v 714.6562 h 224.2344 c 3.3814,-72.3378 6.4987,-129.6705 10.121,-216.8203 4.0168,-96.641 1.7528,-205.0301 -6.8906,-330 -4.739,-68.5181 -6.8405,-84.7321 -21.3574,-167.8359 z" />
    <path
       id="path18"
       style="fill:#92c4e4;stroke:#ffffff;stroke-width:0"
       d="m 1449.4702,2952.3533 c 0.3537,71.9311 0.1691,140.8916 -1.1718,155.9336 -6.151,69.0011 -15.4853,133.0222 -36.2481,252.1641 h 1219.2051 c -0.2309,-1.3219 -0.2255,-1.5163 -0.4629,-2.8731 -18.1976,-104.0127 -27.4368,-166.9212 -34.3574,-233.957 -2.1358,-20.688 -2.4026,-36.7865 -2.3496,-142 0.01,-10.9781 0.2411,-17.8418 0.2851,-29.2676 z" />
    <path
       id="path17"
       style="fill:#92c4e4;stroke:#ffffff;stroke-width:0"
       d="m 1431.8101,2411.49 c 1.4079,6.1168 2.1474,17.3653 2.9023,55.4649 0.5666,28.6 1.667,59.7987 2.4453,69.332 2.741,33.5766 7.5216,161.1016 11.0469,294.668 0.8273,31.3435 1.051,77.7479 1.2656,121.3984 h 1144.9004 c 0.2179,-56.5023 0.6633,-119.418 1.4121,-144.7324 4.2177,-142.5712 8.4187,-250.2265 10.9258,-280 0.7102,-8.4333 1.3072,-30.9333 1.3262,-50 0.032,-32.1338 1.095,-51.5092 3.3379,-64.2051 z" />
    <path
       id="path13"
       style="fill:#92c4e4;stroke:#ffffff;stroke-width:0"
       d="m 3472.3101,3765.5897 -339.7617,257.9687 c 3.3049,10.2752 7.5261,22.8527 8.8261,27.998 1.5661,6.1984 4.8824,22.6997 7.3711,36.668 11.8314,66.4067 20.8254,100.5406 32.2618,122.4336 6.1773,11.8254 10.7022,15.6289 18.5878,15.6289 5.0441,0 6.7513,-0.718 10.4278,-4.3945 5.763,-5.763 7.4445,-11.8095 8.2949,-29.8262 0.9029,-19.1272 -1.0519,-38.0352 -8.457,-81.7793 -9.9512,-58.786 -12.7815,-86.493 -9.9121,-97.084 2.0446,-7.5464 4.7993,-7.01 10.1718,1.9805 10.482,17.5413 17.4198,40.9361 33.8692,114.1973 19.8204,88.2751 29.3379,117.1614 45.0078,136.6054 11.5113,14.2838 29.2692,14.3839 36.7851,0.2071 2.071,-3.9064 2.3372,-6.9011 1.8184,-20.5723 -0.5033,-13.2635 -1.548,-19.5339 -6.1035,-36.666 -3.0223,-11.3666 -7.6545,-29.668 -10.2949,-40.668 -2.6404,-11 -9.7977,-40.7 -15.9043,-66 -11.7932,-48.8604 -13.156,-55.1407 -15.2461,-70.25 -2.1047,-15.2152 0.6803,-22.4765 6.5742,-17.1426 8.9423,8.0926 25.1442,53.2332 63.9629,178.2051 20.0997,64.7081 25.356,77.8357 35.8047,89.4356 9.246,10.2648 17.9095,12.1542 31.25,6.8164 7.0373,-2.8158 9.0521,-7.2731 9.0371,-19.9981 -0.022,-18.703 -7.7019,-46.9592 -36.8906,-135.7324 -21.8357,-66.4102 -29.7174,-92.3523 -34.4375,-113.334 -4.1597,-18.4901 -5.038,-33.434 -2.0723,-35.2773 5.3757,-3.3412 18.0543,11.0173 27.3633,30.9883 3.1508,6.7596 12.1429,27.8158 19.9824,46.7929 27.3268,66.15 41.5455,95.7821 57.334,119.4903 17.6931,26.568 33.9787,36.9454 47.2285,30.0937 7.6192,-3.9401 9.9538,-10.8269 8.1016,-23.9062 -1.8484,-13.0518 -6.9186,-26.5837 -26.545,-70.8477 -20.8621,-47.0507 -23.2472,-53.0906 -50.5234,-128 -30.4897,-83.7346 -40.6879,-116.4901 -42.3438,-136 -0.7084,-8.347 -0.4592,-9.8157 2.3457,-13.9004 4.2765,-6.2273 13.2531,-10.7656 21.295,-10.7656 12.6469,0 30.1278,9.3288 51.1738,27.3125 27.0368,23.1028 52.5458,34.197 83.252,36.207 32.3409,2.1171 52.1166,-8.8064 50.3847,-27.8301 -1.2101,-13.2926 -12.8413,-22.8721 -33.6289,-27.6992 -20.9415,-4.8628 -32.9315,-13.6813 -93.3398,-68.6328 -1.1884,-1.081 -1.8884,-1.6673 -3.0508,-2.7226 z" />
    <path
       id="path40"
       style="fill:#92c4e4;stroke:#ffffff;stroke-width:0"
       d="m 3287.0191,3618.7205 -221.7989,127.0996 c 0.052,1.4247 0.1332,1.5913 0.1875,3.1348 1.9751,56.1465 6.5951,91.5937 16.7735,128.666 2.6174,9.5334 11.6676,35.9327 20.1113,58.666 11.9676,32.2212 22.4968,63.1481 30.2559,87.2715 l 339.7617,-257.9687 c -66.7348,-60.5879 -91.687,-79.7413 -126.9492,-97.3204 -18.2916,-9.1189 -29.1528,-16.5058 -41.2266,-28.041 -8.263,-7.8944 -12.9607,-13.7027 -17.1152,-21.5078 z" />
    <path
       id="path41"
       style="fill:#92c4e4;stroke:#ffffff;stroke-width:0"
       d="m 3160.7339,2925.6072 -351.2773,172.7598 c 16.0798,41.8731 37.0177,90.315 63.5761,146.5879 9.1718,19.4333 21.3259,45.232 27.0098,57.332 5.684,12.1 16.6434,37.6013 24.3535,56.668 15.0359,37.1827 51.5774,126.0206 100.7168,244.8535 16.7876,40.5971 30.9677,75.6125 31.5117,77.8125 6.8608,27.7437 7.4584,32.7756 8.5957,64.1992 l 221.7989,-127.0996 c -2.8102,-5.2794 -5.4064,-11.3061 -8.5567,-20.1465 -14.0531,-39.4363 -19.8876,-72.1058 -36.3633,-203.6191 -11.2741,-89.9941 -18.3219,-140.8919 -27.5097,-198.668 -13.41,-84.3264 -32.8822,-180.3863 -53.8555,-270.6797 z" />
    <path
       id="path42"
       style="fill:#92c4e4;stroke:#ffffff;stroke-width:0"
       d="m 3115.23,2749.6971 -346.6973,163.6406 c 0.6212,8.7557 1.1411,17.6607 1.5352,26.9492 0.4667,11 1.7107,26.0643 2.7637,33.4746 4.454,31.3444 16.7512,72.8528 36.625,124.6055 l 351.2773,-172.7598 c -12.4215,-53.4767 -25.2372,-105.4298 -37.9922,-150.3672 -2.7934,-9.8415 -5.1846,-17.9738 -7.5117,-25.5429 z" />
    <path
       id="path43"
       style="fill:#92c4e4;stroke:#ffffff;stroke-width:0"
       d="m 2973.3882,2066.8865 a 366.1153,366.1153 0 0 1 -183.5508,50.2637 366.1153,366.1153 0 0 1 -130.0605,-26.541 l -36.9453,302.9687 c 6.5417,-0.3835 13.6732,10.6571 23.2011,36.043 10.5114,28.0062 19.1992,57.8132 44.4942,152.666 10.2671,38.5 24.3717,88.6868 31.3437,111.5254 30.0152,98.3217 41.95,153.1078 46.6621,219.5254 L 3115.23,2749.6971 c -6.336,-20.6091 -12.2361,-36.6419 -24.7851,-68.5801 -16.7288,-42.5759 -28.7621,-76.6046 -33.1348,-93.7051 -1.4357,-5.6146 -7.7418,-37.4139 -14.0137,-70.666 -25.9762,-137.7199 -51.9787,-268.9283 -59.4121,-299.791 -6.6114,-27.4499 -8.5753,-63.297 -10.4961,-150.0684 z" />
    <path
       id="path12"
       style="fill:#92c4e4;stroke:#ffffff;stroke-width:0"
       d="m 2019.0034,2412.449 v -396.0488 l -440.2031,-146.7344 a 366.1153,366.1153 0 0 1 -236.8711,212.6211 l 78.9492,311.3262 c 4.2542,0.021 7.9097,4.5316 10.7422,14.2578 0.099,0.3387 0.098,3.22 0.1895,3.6191 z" />
    <path
       id="path16"
       style="fill:#92c4e4;stroke:#ffffff;stroke-width:0"
       d="m 2442.5464,1861.4647 -421.5898,155.5859 -1.9532,-0.6504 v 396.0488 l 592.3692,0.9668 c 1.4734,-8.3399 3.3597,-14.3311 6.1367,-17.2871 1.7472,-1.8597 3.5201,-2.4451 5.3223,-2.5508 l 36.9453,-302.9687 a 366.1153,366.1153 0 0 1 -217.2305,-229.1445 z" />
    <path
       id="path15"
       style="fill:#92c4e4;stroke:#ffffff;stroke-width:0"
       d="m 1517.9175,1491.7986 a 366.1153,366.1153 0 0 1 89.084,239.1953 366.1153,366.1153 0 0 1 -28.2012,138.6719 l 442.1563,147.3848 421.5898,-155.5859 a 366.1153,366.1153 0 0 1 -18.8242,-110.4297 366.1153,366.1153 0 0 1 108.418,-258.7481 c -0.741,-0.19 -1.6614,-0.2969 -2.4004,-0.4883 z" />
    <path
       id="path11"
       style="fill:#92c4e4;stroke:#ffffff;stroke-width:0"
       d="m 2532.1402,1492.2869 a 366.1153,366.1153 0 0 0 -108.418,258.7481 366.1153,366.1153 0 0 0 366.1152,366.1152 366.1153,366.1153 0 0 0 183.5508,-50.2637 c -0.4158,-18.7825 -0.9284,-24.8018 -1.375,-50.5996 -1.3892,-80.2383 -2.4087,-104.7441 -6.0703,-146 -5.3829,-60.6504 -17.5832,-105.9088 -41.873,-155.332 -18.866,-38.3873 -40.9099,-69.5129 -69.0958,-97.5625 -26.4782,-26.3504 -57.9264,-48.6123 -92.9433,-65.791 -42.4288,-20.815 -79.0131,-31.6266 -135.7168,-40.1114 -34.6495,-5.1847 -65.0994,-11.7459 -94.1738,-19.2031 z" />
    <path
       id="path10"
       style="fill:#92c4e4;stroke:#ffffff;stroke-width:0"
       d="m 1070.4565,2054.0076 a 366.1153,366.1153 0 0 0 170.4298,43.1016 366.1153,366.1153 0 0 0 366.1152,-366.1153 366.1153,366.1153 0 0 0 -89.084,-239.1953 h -3.1523 c -29.8458,7.8131 -61.0806,14.3168 -94.0723,19.1504 -60.1978,8.8196 -99.322,20.4908 -143.334,42.7598 -42.3202,21.4129 -77.1204,48.3876 -106.625,82.6465 -42.1463,48.9376 -71.8958,110.9031 -85.416,177.9179 -9.3224,46.2077 -12.5162,97.2162 -14.6153,233.3477 -0.059,3.8294 -0.1864,2.7509 -0.2461,6.3867 z" />
    <path
       id="path9"
       style="fill:#92c4e4;stroke:#ffffff;stroke-width:0"
       d="m 1792.7671,1327.2928 c -0.2274,0.5663 -0.3679,1.4589 -0.6015,2.0039 -3.174,7.4047 -20.3068,25.5055 -41.7891,44.1523 -62.5491,54.2927 -141.3001,93.6607 -235.6113,118.3496 h 1014.9746 c -43.9481,-11.3776 -83.7382,-25.4338 -122.7481,-44.2656 -54.0708,-26.1024 -94.4743,-54.2034 -133.1093,-92.5781 l -21.4786,-21.334 -2.0351,-6.3281 z" />
    <path
       id="path7"
       style="fill:#92c4e4;stroke:#ffffff;stroke-width:0"
       d="m 2024.6577,1139.5174 h -217.9648 v 41.8262 c 0,78.3249 -4.2126,121.767 -13.9258,145.9492 h 231.8906 z" />
    <path
       id="path8"
       style="fill:#92c4e4;stroke:#ffffff;stroke-width:0"
       d="m 2024.6577,1139.5174 v 187.7754 h 225.711 l -1.4805,-4.6074 c -8.6142,-26.7919 -12.0369,-65.5295 -12.1269,-137.2481 l -0.059,-45.9199 z" />
    <path
       id="path6"
       style="fill:#92c4e4;stroke:#ffffff;stroke-width:0"
       d="m 1745.9917,990.40022 2.92,13.92968 c 10.7466,51.2727 30.7698,97.0463 53.4199,122.1191 l 4.3613,4.8281 v 8.2403 h 430.0098 l -0.01,-7.5996 5.4648,-6.4805 c 23.6852,-28.096 43.9233,-76.1163 53.8868,-127.8613 l 1.3808,-7.17578 z" />
    <path
       id="path3"
       style="fill:#92c4e4;stroke:#ffffff;stroke-width:0"
       d="m 1704.3218,679.74201 c 0.6704,5.96107 0.9857,15.00951 1.7988,18.84766 l 0.7696,3.63477 -5.7657,-2.5293 c -12.0669,-5.29528 -21.508,-4.73497 -27.4902,1.63281 -4.414,4.69843 -5.9221,18.3413 -5.9121,53.62695 0.018,100.33966 19.9718,189.10231 49.4023,219.7754 6.156,6.41582 14.4879,11.38716 22.5176,13.43554 l 6.2129,1.58594 0.1367,0.64844 h 551.4336 l 0.168,-0.8711 6.8828,-1.63281 c 27.8432,-6.60386 48.4713,-45.65611 61.4141,-116.27539 11.055,-60.31864 13.9034,-157.10487 4.9843,-169.33398 -4.9697,-6.81407 -17.49,-7.98019 -28.5136,-2.65625 -2.75,1.32812 -5,1.8164 -5,1.08593 0,-0.73047 1.0316,-8.92462 2.2929,-18.21093 0.073,-0.53699 0.04,-2.17711 0.1094,-2.76368 z" />
    <path
       id="path1"
       style="fill:#92c4e4;stroke:#ffffff;stroke-width:0"
       d="m 2021.8706,292.18537 c -18.4213,0.0269 -37.0107,1.10926 -51.1777,3.24024 -24.3287,3.65947 -60.5562,12.5592 -79.3359,19.49023 -43.4354,16.03066 -80.3199,38.83965 -108.7813,67.26953 -49.596,49.54115 -75.2177,114.46003 -81.3418,206.10157 -1.7136,25.64304 0.1174,65.04094 3.0879,91.45507 h 635.4414 c 3.112,-26.18945 3.1117,-99.60467 -0.166,-122.78711 -8.1885,-57.91411 -23.3318,-101.05332 -48.7188,-138.7871 -43.9689,-65.35265 -118.8522,-107.40471 -218.8359,-122.89063 -13.4977,-2.09058 -31.7505,-3.11869 -50.1719,-3.0918 z" />
    <path
       style="fill:#397194;fill-opacity:1;stroke:#ffffff;stroke-width:0;stroke-dasharray:none;stroke-opacity:1"
       d="m 1776.1307,1131.2323 487.3896,1.3808"
       id="path4" />
    <path
       style="fill:#397194;fill-opacity:1;stroke:#ffffff;stroke-width:0;stroke-dasharray:none;stroke-opacity:1"
       d="M 1302.3942,4852.248 H 2680.9403"
       id="path23" />
    <path
       style="fill:#397194;fill-opacity:1;stroke:#ffffff;stroke-width:0;stroke-dasharray:none;stroke-opacity:1"
       d="m 1329.7308,4832.7218 h 1292.631"
       id="path24" />
  </g>
</svg>
